<?xml version="1.0" encoding="UTF-8" standalone="no"?>
<!DOCTYPE svg PUBLIC "-//W3C//DTD SVG 1.1//EN" "http://www.w3.org/Graphics/SVG/1.1/DTD/svg11.dtd">
<svg width="100%" height="100%" viewBox="0 0 2647 1844" version="1.1" xmlns="http://www.w3.org/2000/svg" xmlns:xlink="http://www.w3.org/1999/xlink" xml:space="preserve" xmlns:serif="http://www.serif.com/" style="fill-rule:evenodd;clip-rule:evenodd;stroke-linejoin:round;stroke-miterlimit:2;">
    <g transform="matrix(4.16667,0,0,4.16667,-286.213,-569.313)">
        <path d="M448.113,432.157L143.691,432.157C102.298,432.157 68.691,398.551 68.691,357.157C68.691,315.763 102.298,282.157 143.691,282.157L448.263,282.157L430.759,264.653C401.49,235.384 401.49,187.857 430.759,158.587C460.029,129.318 507.556,129.318 536.825,158.587L681.865,303.627C699.202,320.964 706.27,344.707 703.069,367.267C702.19,373.776 700.475,380.02 698.036,385.889C694.378,395.004 688.859,403.543 681.48,410.922L535.17,557.233C505.9,586.502 458.373,586.502 429.104,557.233C399.834,527.963 399.834,480.436 429.104,451.166L448.113,432.157Z"/>
    </g>
</svg>
